<mxfile host="app.diagrams.net" agent="Mozilla/5.0 (Windows NT 10.0; Win64; x64) AppleWebKit/537.36 (KHTML, like Gecko) Chrome/129.0.0.0 Safari/537.36" version="27.1.4">
  <diagram id="gwUhwwIQdEspnQJv_WbK" name="Pagina-1">
    <mxGraphModel dx="1699" dy="1652" grid="1" gridSize="10" guides="1" tooltips="1" connect="1" arrows="1" fold="1" page="1" pageScale="1" pageWidth="827" pageHeight="1169" math="0" shadow="0">
      <root>
        <mxCell id="0" />
        <mxCell id="1" parent="0" />
        <mxCell id="FgpJdpsvdST_ZWDqFQEa-1" value="Utente" style="shape=umlActor;verticalLabelPosition=bottom;verticalAlign=top;html=1;outlineConnect=0;" parent="1" vertex="1">
          <mxGeometry x="-351.25" y="-150" width="30" height="60" as="geometry" />
        </mxCell>
        <mxCell id="FgpJdpsvdST_ZWDqFQEa-4" value="" style="endArrow=none;dashed=1;html=1;rounded=0;" parent="1" source="WTWF-vKirUXl5wXtsg50-43" target="FgpJdpsvdST_ZWDqFQEa-1" edge="1">
          <mxGeometry width="50" height="50" relative="1" as="geometry">
            <mxPoint x="-336.25" y="611" as="sourcePoint" />
            <mxPoint x="-321.25" y="191" as="targetPoint" />
            <Array as="points" />
          </mxGeometry>
        </mxCell>
        <mxCell id="FgpJdpsvdST_ZWDqFQEa-5" value="controller Logout" style="rounded=0;whiteSpace=wrap;html=1;" parent="1" vertex="1">
          <mxGeometry x="260" y="-140" width="120" height="60" as="geometry" />
        </mxCell>
        <mxCell id="FgpJdpsvdST_ZWDqFQEa-6" value="" style="endArrow=none;dashed=1;html=1;rounded=0;" parent="1" source="WTWF-vKirUXl5wXtsg50-3" target="FgpJdpsvdST_ZWDqFQEa-5" edge="1">
          <mxGeometry width="50" height="50" relative="1" as="geometry">
            <mxPoint x="320" y="630" as="sourcePoint" />
            <mxPoint x="319.5" y="80" as="targetPoint" />
          </mxGeometry>
        </mxCell>
        <mxCell id="WTWF-vKirUXl5wXtsg50-1" value="" style="endArrow=classic;html=1;rounded=0;" parent="1" edge="1">
          <mxGeometry width="50" height="50" relative="1" as="geometry">
            <mxPoint x="50" y="-27.5" as="sourcePoint" />
            <mxPoint x="310" y="-27.5" as="targetPoint" />
          </mxGeometry>
        </mxCell>
        <mxCell id="WTWF-vKirUXl5wXtsg50-2" value="Richiesta GET logout" style="text;html=1;align=center;verticalAlign=middle;whiteSpace=wrap;rounded=0;" parent="1" vertex="1">
          <mxGeometry x="110" y="-58.5" width="140" height="30" as="geometry" />
        </mxCell>
        <mxCell id="WTWF-vKirUXl5wXtsg50-36" value="view Profilo utente" style="rounded=0;whiteSpace=wrap;html=1;" parent="1" vertex="1">
          <mxGeometry x="-30" y="-140" width="120" height="60" as="geometry" />
        </mxCell>
        <mxCell id="WTWF-vKirUXl5wXtsg50-37" value="" style="endArrow=none;dashed=1;html=1;rounded=0;entryX=0.5;entryY=1;entryDx=0;entryDy=0;" parent="1" target="WTWF-vKirUXl5wXtsg50-36" edge="1">
          <mxGeometry width="50" height="50" relative="1" as="geometry">
            <mxPoint x="30" y="310" as="sourcePoint" />
            <mxPoint x="29.5" y="80" as="targetPoint" />
          </mxGeometry>
        </mxCell>
        <mxCell id="WTWF-vKirUXl5wXtsg50-42" value="200 &#39;logout avvenuto con successo&#39;" style="text;html=1;align=center;verticalAlign=middle;whiteSpace=wrap;rounded=0;" parent="1" vertex="1">
          <mxGeometry x="113.13" y="226" width="130" height="30" as="geometry" />
        </mxCell>
        <mxCell id="WTWF-vKirUXl5wXtsg50-44" value="" style="endArrow=none;dashed=1;html=1;rounded=0;" parent="1" target="WTWF-vKirUXl5wXtsg50-43" edge="1">
          <mxGeometry width="50" height="50" relative="1" as="geometry">
            <mxPoint x="-336" y="300" as="sourcePoint" />
            <mxPoint x="-336.25" y="81" as="targetPoint" />
            <Array as="points">
              <mxPoint x="-336.25" y="151" />
            </Array>
          </mxGeometry>
        </mxCell>
        <mxCell id="WTWF-vKirUXl5wXtsg50-43" value="" style="rounded=0;whiteSpace=wrap;html=1;rotation=90;" parent="1" vertex="1">
          <mxGeometry x="-487.18" y="101.94" width="301.87" height="20" as="geometry" />
        </mxCell>
        <mxCell id="WTWF-vKirUXl5wXtsg50-48" value="" style="endArrow=classic;html=1;rounded=0;" parent="1" edge="1">
          <mxGeometry width="50" height="50" relative="1" as="geometry">
            <mxPoint x="-300" y="-27.5" as="sourcePoint" />
            <mxPoint x="10" y="-27.5" as="targetPoint" />
          </mxGeometry>
        </mxCell>
        <mxCell id="WTWF-vKirUXl5wXtsg50-49" value="seleziona il logout" style="text;html=1;align=center;verticalAlign=middle;whiteSpace=wrap;rounded=0;" parent="1" vertex="1">
          <mxGeometry x="-225" y="-58.5" width="140" height="30" as="geometry" />
        </mxCell>
        <mxCell id="WTWF-vKirUXl5wXtsg50-51" value="redirect alla pagina di login" style="text;html=1;align=center;verticalAlign=middle;whiteSpace=wrap;rounded=0;" parent="1" vertex="1">
          <mxGeometry x="-220" y="226" width="130" height="30" as="geometry" />
        </mxCell>
        <mxCell id="WTWF-vKirUXl5wXtsg50-57" value="" style="rounded=0;whiteSpace=wrap;html=1;rotation=90;" parent="1" vertex="1">
          <mxGeometry x="-128.75" y="88.75" width="317.5" height="20" as="geometry" />
        </mxCell>
        <mxCell id="WTWF-vKirUXl5wXtsg50-58" value="" style="endArrow=classic;html=1;rounded=0;" parent="1" edge="1">
          <mxGeometry width="50" height="50" relative="1" as="geometry">
            <mxPoint x="340" y="-28.5" as="sourcePoint" />
            <mxPoint x="340" y="21.5" as="targetPoint" />
            <Array as="points">
              <mxPoint x="450" y="-28.5" />
              <mxPoint x="450" y="-8.5" />
              <mxPoint x="450" y="21.5" />
            </Array>
          </mxGeometry>
        </mxCell>
        <mxCell id="WTWF-vKirUXl5wXtsg50-59" value="session_start()" style="text;html=1;align=center;verticalAlign=middle;whiteSpace=wrap;rounded=0;" parent="1" vertex="1">
          <mxGeometry x="450" y="-18.5" width="100" height="30" as="geometry" />
        </mxCell>
        <mxCell id="WTWF-vKirUXl5wXtsg50-60" value="" style="endArrow=none;dashed=1;html=1;rounded=0;" parent="1" target="WTWF-vKirUXl5wXtsg50-3" edge="1">
          <mxGeometry width="50" height="50" relative="1" as="geometry">
            <mxPoint x="320" y="300" as="sourcePoint" />
            <mxPoint x="320" y="-80" as="targetPoint" />
          </mxGeometry>
        </mxCell>
        <mxCell id="WTWF-vKirUXl5wXtsg50-3" value="" style="rounded=0;whiteSpace=wrap;html=1;rotation=90;" parent="1" vertex="1">
          <mxGeometry x="166.57" y="86.56" width="306.87" height="20" as="geometry" />
        </mxCell>
        <mxCell id="IU57KORrOc4GWFrBKoTF-1" value="" style="endArrow=classic;html=1;rounded=0;" parent="1" edge="1">
          <mxGeometry width="50" height="50" relative="1" as="geometry">
            <mxPoint x="340" y="60" as="sourcePoint" />
            <mxPoint x="340" y="110" as="targetPoint" />
            <Array as="points">
              <mxPoint x="450" y="60" />
              <mxPoint x="450" y="80" />
              <mxPoint x="450" y="110" />
            </Array>
          </mxGeometry>
        </mxCell>
        <mxCell id="IU57KORrOc4GWFrBKoTF-2" value="session_unset()" style="text;html=1;align=center;verticalAlign=middle;whiteSpace=wrap;rounded=0;" parent="1" vertex="1">
          <mxGeometry x="450" y="70" width="90" height="30" as="geometry" />
        </mxCell>
        <mxCell id="IU57KORrOc4GWFrBKoTF-3" value="" style="endArrow=classic;html=1;rounded=0;" parent="1" edge="1">
          <mxGeometry width="50" height="50" relative="1" as="geometry">
            <mxPoint x="350" y="156.63" as="sourcePoint" />
            <mxPoint x="350" y="206.63" as="targetPoint" />
            <Array as="points">
              <mxPoint x="460" y="156.63" />
              <mxPoint x="460" y="176.63" />
              <mxPoint x="460" y="206.63" />
            </Array>
          </mxGeometry>
        </mxCell>
        <mxCell id="IU57KORrOc4GWFrBKoTF-4" value="session_destroy()" style="text;html=1;align=center;verticalAlign=middle;whiteSpace=wrap;rounded=0;" parent="1" vertex="1">
          <mxGeometry x="460" y="166.63" width="110" height="30" as="geometry" />
        </mxCell>
        <mxCell id="VYcVBALF2hzYKhpevtlR-1" value="" style="html=1;labelBackgroundColor=#ffffff;startArrow=none;startFill=0;startSize=6;endArrow=classic;endFill=1;endSize=6;jettySize=auto;orthogonalLoop=1;strokeWidth=1;dashed=1;fontSize=14;rounded=0;" edge="1" parent="1">
          <mxGeometry width="60" height="60" relative="1" as="geometry">
            <mxPoint x="-20" y="220" as="sourcePoint" />
            <mxPoint x="-300" y="220" as="targetPoint" />
          </mxGeometry>
        </mxCell>
        <mxCell id="VYcVBALF2hzYKhpevtlR-2" value="" style="html=1;labelBackgroundColor=#ffffff;startArrow=none;startFill=0;startSize=6;endArrow=classic;endFill=1;endSize=6;jettySize=auto;orthogonalLoop=1;strokeWidth=1;dashed=1;fontSize=14;rounded=0;" edge="1" parent="1">
          <mxGeometry width="60" height="60" relative="1" as="geometry">
            <mxPoint x="290" y="210" as="sourcePoint" />
            <mxPoint x="60" y="210" as="targetPoint" />
          </mxGeometry>
        </mxCell>
      </root>
    </mxGraphModel>
  </diagram>
</mxfile>
